<svg width="32" height="32" viewBox="0 0 32 32" fill="none" xmlns="http://www.w3.org/2000/svg">
<g id="Button Close">
<g id="bg" filter="url(#filter0_b_269_779)">
<circle cx="16" cy="16" r="16" fill="#404040" fill-opacity="0.15"/>
</g>
<path id="form" d="M21.7071 10.2929C22.0976 10.6834 22.0976 11.3166 21.7071 11.7071L18.192 15.2222C18.192 15.2222 18.1921 15.2221 18.192 15.2222C17.7628 15.6516 17.7625 16.3476 18.1914 16.7772C18.1912 16.777 18.1916 16.7774 18.1914 16.7772L21.7071 20.2929C22.0976 20.6834 22.0976 21.3166 21.7071 21.7071C21.3166 22.0976 20.6834 22.0976 20.2929 21.7071L16.7778 18.192C16.3482 17.7625 15.6518 17.7625 15.2222 18.192L13.7071 19.7071C13.7068 19.7074 13.7065 19.7077 13.7062 19.708L11.7071 21.7071C11.3166 22.0976 10.6834 22.0976 10.2929 21.7071C9.90237 21.3166 9.90237 20.6834 10.2929 20.2929L13.808 16.7778C13.8082 16.7776 13.8085 16.7773 13.8088 16.777C14.2375 16.3474 14.2373 15.6515 13.808 15.2222L10.2929 11.7071C9.90237 11.3166 9.90237 10.6834 10.2929 10.2929C10.6834 9.90237 11.3166 9.90237 11.7071 10.2929L13.7065 12.2923C13.7063 12.2921 13.7067 12.2925 13.7065 12.2923L15.2222 13.808C15.6516 14.2374 16.3477 14.2375 16.7773 13.8085C16.7771 13.8087 16.7775 13.8083 16.7773 13.8085L20.2929 10.2929C20.6834 9.90237 21.3166 9.90237 21.7071 10.2929Z" fill="#404040"/>
</g>
<defs>
<filter id="filter0_b_269_779" x="-30" y="-30" width="92" height="92" filterUnits="userSpaceOnUse" color-interpolation-filters="sRGB">
<feFlood flood-opacity="0" result="BackgroundImageFix"/>
<feGaussianBlur in="BackgroundImageFix" stdDeviation="15"/>
<feComposite in2="SourceAlpha" operator="in" result="effect1_backgroundBlur_269_779"/>
<feBlend mode="normal" in="SourceGraphic" in2="effect1_backgroundBlur_269_779" result="shape"/>
</filter>
</defs>
</svg>
