<svg width="311" height="358" viewBox="0 0 311 358" fill="none" xmlns="http://www.w3.org/2000/svg">
<path d="M37.6481 280.928L42.2716 240L53.5 278.288L83.2222 257.824L65.3889 285.549L107 300.732L64.0679 299.412L75.2963 337.699L48.8765 306.673L31.0432 341L34.3457 306.673L0 310.634L31.7037 290.83L5.28395 265.085L37.6481 280.928Z" fill="#F2F2F2"/>
<path d="M241.648 40.9281L246.272 0L257.5 38.2876L287.222 17.8235L269.389 45.549L311 60.732L268.068 59.4118L279.296 97.6993L252.877 66.6732L235.043 101L238.346 66.6732L204 70.634L235.704 50.8301L209.284 25.085L241.648 40.9281Z" fill="#F2F2F2"/>
<circle cx="239" cy="348" r="6" fill="#1D625E"/>
<circle cx="258" cy="352" r="6" fill="#1D625E"/>
<circle cx="278" cy="348" r="6" fill="#1D625E"/>
<circle cx="294" cy="336" r="6" fill="#1D625E"/>
</svg>
